HIERARCHY
ROOT Hips
{
  OFFSET 0.0000 94.0000 0.0000
  CHANNELS 6 Xposition Yposition Zposition Yrotation Xrotation Zrotation
  JOINT Spine
  {
    OFFSET 0.0000 12.9947 0.0000
    CHANNELS 3 Yrotation Xrotation Zrotation
    JOINT Spine1
    {
      OFFSET 0.0000 12.7099 0.0000
      CHANNELS 3 Yrotation Xrotation Zrotation
      JOINT Spine2
      {
        OFFSET 0.0000 12.7829 0.0000
        CHANNELS 3 Yrotation Xrotation Zrotation
        JOINT LeftShoulder
        {
          OFFSET 7.0401 10.4351 1.9147
          CHANNELS 3 Yrotation Xrotation Zrotation
          JOINT LeftArm
          {
            OFFSET 0.0000 13.4599 0.0000
            CHANNELS 3 Yrotation Xrotation Zrotation
            JOINT LeftForeArm
            {
              OFFSET -0.0001 26.1000 0.0000
              CHANNELS 3 Yrotation Xrotation Zrotation
              JOINT LeftHand
              {
                OFFSET 0.0000 28.9001 0.0000
                CHANNELS 3 Yrotation Xrotation Zrotation
                JOINT LeftHandIndex1
                {
                  OFFSET -2.5612 8.0739 0.1030
                  CHANNELS 3 Yrotation Xrotation Zrotation
                  JOINT LeftHandIndex2
                  {
                    OFFSET 0.0000 4.5805 0.0000
                    CHANNELS 3 Yrotation Xrotation Zrotation
                    JOINT LeftHandIndex3
                    {
                      OFFSET 0.0000 2.8180 0.0000
                      CHANNELS 3 Yrotation Xrotation Zrotation
                      End Site
                      {
                        OFFSET 0.0000 1.3566 0.0000
                      }
                    }
                  }
                }
                JOINT LeftHandMiddle1
                {
                  OFFSET -0.5450 8.1365 0.1030
                  CHANNELS 3 Yrotation Xrotation Zrotation
                  JOINT LeftHandMiddle2
                  {
                    OFFSET 0.0000 4.7024 0.0000
                    CHANNELS 3 Yrotation Xrotation Zrotation
                    JOINT LeftHandMiddle3
                    {
                      OFFSET 0.0000 3.1016 0.0000
                      CHANNELS 3 Yrotation Xrotation Zrotation
                      End Site
                      {
                        OFFSET 0.0000 1.4991 0.0000
                      }
                    }
                  }
                }
                JOINT LeftHandPinky1
                {
                  OFFSET 3.1368 7.0181 0.1031
                  CHANNELS 3 Yrotation Xrotation Zrotation
                  JOINT LeftHandPinky2
                  {
                    OFFSET 0.0000 3.5540 0.0000
                    CHANNELS 3 Yrotation Xrotation Zrotation
                    JOINT LeftHandPinky3
                    {
                      OFFSET 0.0000 2.2339 0.0000
                      CHANNELS 3 Yrotation Xrotation Zrotation
                      End Site
                      {
                        OFFSET 0.0000 1.1205 0.0000
                      }
                    }
                  }
                }
                JOINT LeftHandRing1
                {
                  OFFSET 1.4405 7.8067 0.1031
                  CHANNELS 3 Yrotation Xrotation Zrotation
                  JOINT LeftHandRing2
                  {
                    OFFSET 0.0000 4.3922 0.0000
                    CHANNELS 3 Yrotation Xrotation Zrotation
                    JOINT LeftHandRing3
                    {
                      OFFSET 0.0000 2.8327 0.0000
                      CHANNELS 3 Yrotation Xrotation Zrotation
                      End Site
                      {
                        OFFSET 0.0000 1.3500 0.0000
                      }
                    }
                  }
                }
                JOINT LeftHandThumb1
                {
                  OFFSET -2.7863 2.0790 0.0946
                  CHANNELS 3 Yrotation Xrotation Zrotation
                  JOINT LeftHandThumb2
                  {
                    OFFSET 0.0000 3.9619 0.0000
                    CHANNELS 3 Yrotation Xrotation Zrotation
                    JOINT LeftHandThumb3
                    {
                      OFFSET 0.0000 3.0072 0.0000
                      CHANNELS 3 Yrotation Xrotation Zrotation
                      End Site
                      {
                        OFFSET 0.0000 1.7295 0.0000
                      }
                    }
                  }
                }
              }
            }
          }
        }
        JOINT Neck
        {
          OFFSET 0.0000 18.2093 0.0000
          CHANNELS 3 Yrotation Xrotation Zrotation
          JOINT Head
          {
            OFFSET 0.0000 11.0335 0.0000
            CHANNELS 3 Yrotation Xrotation Zrotation
            End Site
            {
              OFFSET 0.0000 8.0220 0.0000
            }
          }
        }
        JOINT RightShoulder
        {
          OFFSET -7.0401 10.4351 1.9147
          CHANNELS 3 Yrotation Xrotation Zrotation
          JOINT RightArm
          {
            OFFSET 0.0000 13.4599 0.0000
            CHANNELS 3 Yrotation Xrotation Zrotation
            JOINT RightForeArm
            {
              OFFSET 0.0000 26.1001 0.0000
              CHANNELS 3 Yrotation Xrotation Zrotation
              JOINT RightHand
              {
                OFFSET -0.0001 28.9001 -0.0001
                CHANNELS 3 Yrotation Xrotation Zrotation
                JOINT RightHandIndex1
                {
                  OFFSET 2.5611 8.0740 0.1030
                  CHANNELS 3 Yrotation Xrotation Zrotation
                  JOINT RightHandIndex2
                  {
                    OFFSET 0.0000 4.5805 -0.0001
                    CHANNELS 3 Yrotation Xrotation Zrotation
                    JOINT RightHandIndex3
                    {
                      OFFSET 0.0000 2.8180 0.0000
                      CHANNELS 3 Yrotation Xrotation Zrotation
                      End Site
                      {
                        OFFSET 0.0000 1.3566 0.0000
                      }
                    }
                  }
                }
                JOINT RightHandMiddle1
                {
                  OFFSET 0.5450 8.1366 0.1030
                  CHANNELS 3 Yrotation Xrotation Zrotation
                  JOINT RightHandMiddle2
                  {
                    OFFSET 0.0000 4.7024 -0.0001
                    CHANNELS 3 Yrotation Xrotation Zrotation
                    JOINT RightHandMiddle3
                    {
                      OFFSET 0.0000 3.1016 0.0000
                      CHANNELS 3 Yrotation Xrotation Zrotation
                      End Site
                      {
                        OFFSET 0.0000 1.4991 0.0000
                      }
                    }
                  }
                }
                JOINT RightHandPinky1
                {
                  OFFSET -3.1368 7.0181 0.1030
                  CHANNELS 3 Yrotation Xrotation Zrotation
                  JOINT RightHandPinky2
                  {
                    OFFSET 0.0000 3.5541 -0.0001
                    CHANNELS 3 Yrotation Xrotation Zrotation
                    JOINT RightHandPinky3
                    {
                      OFFSET 0.0000 2.2340 0.0000
                      CHANNELS 3 Yrotation Xrotation Zrotation
                      End Site
                      {
                        OFFSET 0.0000 1.1205 0.0000
                      }
                    }
                  }
                }
                JOINT RightHandRing1
                {
                  OFFSET -1.4405 7.8068 0.1030
                  CHANNELS 3 Yrotation Xrotation Zrotation
                  JOINT RightHandRing2
                  {
                    OFFSET 0.0000 4.3923 -0.0001
                    CHANNELS 3 Yrotation Xrotation Zrotation
                    JOINT RightHandRing3
                    {
                      OFFSET 0.0000 2.8327 0.0000
                      CHANNELS 3 Yrotation Xrotation Zrotation
                      End Site
                      {
                        OFFSET 0.0000 1.3500 0.0000
                      }
                    }
                  }
                }
                JOINT RightHandThumb1
                {
                  OFFSET 2.7863 2.0791 0.0945
                  CHANNELS 3 Yrotation Xrotation Zrotation
                  JOINT RightHandThumb2
                  {
                    OFFSET 0.0000 3.9620 -0.0001
                    CHANNELS 3 Yrotation Xrotation Zrotation
                    JOINT RightHandThumb3
                    {
                      OFFSET 0.0000 3.0072 -0.0001
                      CHANNELS 3 Yrotation Xrotation Zrotation
                      End Site
                      {
                        OFFSET 0.0000 1.7295 0.0000
                      }
                    }
                  }
                }
              }
            }
          }
        }
      }
    }
  }
  JOINT LeftUpLeg
  {
    OFFSET 8.1000 0.0000 0.0000
    CHANNELS 3 Yrotation Xrotation Zrotation
    JOINT LeftLeg
    {
      OFFSET 0.0000 43.2000 0.0000
      CHANNELS 3 Yrotation Xrotation Zrotation
      JOINT LeftFoot
      {
        OFFSET 0.0000 43.3000 0.0000
        CHANNELS 3 Yrotation Xrotation Zrotation
        JOINT LeftToeBase
        {
          OFFSET 0.0000 14.5727 0.0000
          CHANNELS 3 Yrotation Xrotation Zrotation
          End Site
          {
            OFFSET 0.0000 3.5000 0.0000
          }
        }
      }
    }
  }
  JOINT RightUpLeg
  {
    OFFSET -8.1000 0.0000 0.0000
    CHANNELS 3 Yrotation Xrotation Zrotation
    JOINT RightLeg
    {
      OFFSET 0.0000 43.2000 0.0000
      CHANNELS 3 Yrotation Xrotation Zrotation
      JOINT RightFoot
      {
        OFFSET 0.0000 43.3000 0.0000
        CHANNELS 3 Yrotation Xrotation Zrotation
        JOINT RightToeBase
        {
          OFFSET 0.0000 14.5727 0.0000
          CHANNELS 3 Yrotation Xrotation Zrotation
          End Site
          {
            OFFSET 0.0000 3.5000 0.0000
          }
        }
      }
    }
  }
}
MOTION
Frames: 5
Frame Time: 0.010000
0.0000 94.0000 0.0000 0.0000 0.0000 0.0000 0.0000 0.0000 0.0000 0.0000 0.0000 0.0000 0.0000 0.0000 0.0000 -270.0000 90.0000 0.0000 0.0000 0.0000 0.0000 0.0000 0.0000 0.0000 0.0000 0.0000 0.0000 0.0000 0.0000 0.0001 0.0000 0.0000 0.0000 0.0000 -0.0013 -0.0008 0.0000 -0.0004 0.0001 0.0000 0.0000 0.0000 0.0000 0.0000 0.0000 0.0000 0.0002 0.0000 0.0000 -0.0006 0.0003 0.0000 0.0004 -0.0006 0.0000 0.0000 0.0001 0.0000 0.0000 0.0000 0.0000 -0.0010 -0.0002 0.0000 -30.0000 0.0000 0.0000 30.0000 0.0000 0.0000 0.0000 0.0000 0.0000 0.0000 0.0000 0.0000 0.0000 0.0000 270.0001 90.0000 0.0000 0.0000 0.0000 0.0000 0.0000 0.0000 0.0000 0.0000 0.0000 0.0000 0.0000 -0.0001 0.0001 0.0000 0.0000 0.0000 0.0000 -0.0006 0.0003 0.0000 -0.0001 0.0001 0.0000 0.0000 0.0000 0.0000 0.0000 0.0000 0.0000 0.0007 0.0001 0.0000 -0.0011 0.0001 0.0000 -0.0008 0.0003 0.0000 0.0001 0.0000 0.0000 0.0000 0.0000 0.0000 -0.0009 0.0000 0.0000 30.0000 0.0000 0.0000 30.0000 0.0000 0.0000 0.0000 0.0000 0.0000 0.0000 180.0000 0.0000 0.0001 0.0826 -0.1744 64.6492 -0.1930 0.0000 25.3510 0.0000 0.0000 0.0000 180.0000 0.0000 0.0000 -0.0827 0.1745 64.6492 0.1931 0.0000 25.3508 -0.0001 
-1.3863 93.7077 12.2605 0.0000 1.2254 3.1800 0.0000 0.0000 0.0000 0.0000 0.0000 0.0000 -20.4488 0.0000 0.0000 -270.0000 90.0000 0.0000 -13.3895 80.9367 -23.3605 0.2930 2.9892 11.2903 0.0000 0.0000 0.0000 4.4556 17.5008 8.6883 0.0000 18.0001 0.0000 0.0000 17.9987 -0.0008 0.0000 17.9996 5.4001 0.0000 18.0000 0.0000 0.0001 18.0000 0.0001 -22.7691 18.0024 -13.2938 -0.0003 17.9994 0.0003 -0.0001 18.0004 -0.0006 -11.4059 19.2849 -1.9366 0.0000 18.0000 0.0000 0.0000 17.9990 -0.0002 59.0812 -12.4334 28.1708 -0.3546 6.3513 -6.3900 -0.3550 6.3509 -6.3901 0.0000 0.0000 0.0000 17.8443 -7.0232 -5.0348 270.0001 90.0000 0.0000 -70.2185 67.8773 -75.3563 -0.0619 0.2502 -24.2134 0.0000 0.0000 0.0000 -4.4558 17.5007 -8.6881 0.0000 18.0000 0.0000 0.0000 17.9994 0.0002 0.0000 17.9999 -5.3999 0.0000 18.0000 0.0000 0.0000 18.0000 0.0000 22.7693 18.0026 13.2939 0.0000 17.9989 0.0001 0.0000 17.9992 0.0002 11.4057 19.2849 1.9367 0.0000 18.0000 0.0000 0.0000 17.9991 0.0000 -59.0813 -12.4333 -28.1704 0.3547 6.3506 6.3897 0.3549 6.3508 6.3902 8.3057 -5.6728 -179.9752 -0.0126 -29.6098 0.1110 -1.4849 70.5390 -1.7123 0.0001 39.8106 0.6391 -9.7319 -0.3237 175.5356 0.0372 -27.7154 -0.1890 10.3656 73.0540 11.4782 0.0000 40.9697 0.3474 
-1.5029 93.8962 12.0750 0.0000 1.2750 3.1463 0.0000 0.0000 0.0000 0.0000 0.0000 0.0000 -20.6718 0.0000 0.0000 -270.0000 90.0000 0.0000 -12.9007 81.0005 -23.0298 0.2951 2.9229 11.6314 0.0000 0.0000 0.0000 4.4556 17.5008 8.6883 0.0000 18.0001 0.0000 0.0000 17.9987 -0.0008 0.0000 17.9996 5.4001 0.0000 18.0000 0.0000 0.0001 18.0000 0.0001 -22.7691 18.0024 -13.2938 -0.0003 17.9994 0.0003 0.0000 18.0004 -0.0006 -11.4059 19.2849 -1.9366 0.0000 18.0000 0.0000 0.0000 17.9990 -0.0001 59.0813 -12.4334 28.1708 -0.3546 6.3513 -6.3900 -0.3550 6.3509 -6.3901 0.0000 0.0000 0.0000 17.6557 -6.9826 -5.0839 270.0001 90.0000 0.0000 -69.9288 68.8037 -75.1383 -0.0733 0.2999 -23.9222 0.0000 0.0000 0.0000 -4.4558 17.5007 -8.6881 0.0000 18.0000 0.0000 0.0000 17.9994 0.0002 0.0000 17.9999 -5.3999 0.0000 18.0000 0.0000 0.0000 18.0000 0.0000 22.7693 18.0026 13.2939 0.0000 17.9989 0.0001 0.0000 17.9992 0.0002 11.4057 19.2849 1.9367 0.0000 18.0000 0.0000 0.0000 17.9992 0.0000 -59.0813 -12.4333 -28.1704 0.3548 6.3506 6.3897 0.3549 6.3508 6.3902 7.6136 -5.8573 -179.9986 -0.0110 -29.2746 0.1073 -1.2956 69.8663 -1.5017 0.0001 40.0074 0.6423 -10.1721 -0.0326 175.6355 0.0318 -26.7560 -0.1747 10.1494 72.5594 11.2889 0.0000 40.8820 0.3703 
-1.6143 93.9601 11.8968 0.0000 1.3264 3.1160 0.0000 0.0000 0.0000 0.0000 0.0000 0.0000 -20.8835 0.0000 0.0000 -270.0000 90.0000 0.0000 -12.3724 81.0639 -22.6479 0.2972 2.8658 11.9556 0.0000 0.0000 0.0000 4.4556 17.5008 8.6883 0.0000 18.0001 0.0000 0.0000 17.9987 -0.0008 0.0000 17.9996 5.4001 0.0000 18.0000 0.0000 0.0001 18.0000 0.0001 -22.7691 18.0024 -13.2938 -0.0003 17.9994 0.0004 -0.0001 18.0004 -0.0006 -11.4059 19.2849 -1.9366 0.0000 18.0000 0.0000 0.0000 17.9990 -0.0001 59.0813 -12.4334 28.1708 -0.3546 6.3513 -6.3900 -0.3550 6.3509 -6.3901 0.0000 0.0000 0.0000 17.4811 -6.9523 -5.1448 270.0001 90.0000 0.0000 -69.6665 69.6623 -74.9428 -0.0795 0.3294 -23.6327 0.0000 0.0000 0.0000 -4.4558 17.5007 -8.6881 0.0000 18.0000 0.0000 0.0000 17.9993 0.0002 -0.0001 17.9999 -5.3999 0.0000 18.0000 0.0000 0.0000 18.0000 0.0000 22.7693 18.0026 13.2939 0.0000 17.9989 0.0001 0.0000 17.9992 0.0002 11.4057 19.2849 1.9367 0.0000 18.0000 0.0000 0.0000 17.9992 0.0000 -59.0813 -12.4333 -28.1704 0.3547 6.3506 6.3897 0.3549 6.3508 6.3902 6.9362 -6.3250 179.9831 -0.0107 -29.5551 0.1064 -1.1596 69.5225 -1.3476 0.0001 40.2064 0.6455 -10.6157 -0.0544 175.7237 0.0291 -26.4718 -0.1665 10.1530 72.4074 11.3194 0.0000 40.8074 0.3892 
-1.7227 94.0156 11.7274 0.0000 1.3792 3.0881 0.0000 0.0000 0.0000 0.0000 0.0000 0.0000 -21.0872 0.0000 0.0000 -270.0000 90.0000 0.0000 -11.8095 81.1270 -22.2265 0.2995 2.8142 12.2720 0.0000 0.0000 0.0000 4.4556 17.5008 8.6883 0.0000 18.0001 0.0000 0.0000 17.9987 -0.0008 -0.0001 17.9996 5.4001 0.0000 18.0001 0.0000 0.0001 18.0000 0.0001 -22.7691 18.0024 -13.2938 -0.0003 17.9994 0.0004 -0.0001 18.0004 -0.0006 -11.4059 19.2849 -1.9366 0.0000 18.0000 0.0000 0.0000 17.9990 -0.0001 59.0813 -12.4334 28.1708 -0.3546 6.3513 -6.3900 -0.3550 6.3509 -6.3901 0.0000 0.0000 0.0000 17.3139 -6.9272 -5.2118 270.0000 90.0000 0.0000 -69.4257 70.4684 -74.7656 -0.0809 0.3398 -23.3446 0.0000 0.0000 0.0000 -4.4558 17.5007 -8.6881 0.0000 18.0000 0.0000 0.0000 17.9994 0.0002 -0.0001 17.9999 -5.3999 0.0000 18.0000 0.0000 0.0000 18.0000 0.0000 22.7693 18.0026 13.2939 0.0000 17.9989 0.0001 -0.0001 17.9992 0.0002 11.4057 19.2849 1.9367 0.0000 18.0000 0.0000 0.0000 17.9992 0.0000 -59.0813 -12.4333 -28.1704 0.3547 6.3506 6.3897 0.3549 6.3508 6.3902 6.2702 -6.7886 179.9680 -0.0105 -29.8512 0.1056 -1.0390 69.1966 -1.2102 0.0001 40.4064 0.6490 -11.0974 -0.0888 175.8006 0.0266 -26.2240 -0.1591 10.1589 72.2735 11.3514 0.0000 40.7404 0.4047 
